Coordinates
version=1
nRows=12
nColumns=42
inDegrees=yes

Units are S.I. units (second, meters, Newtons, ...)
If the header above contains a line with 'inDegrees', this indicates whether rotational values are in degrees (yes) or radians (no).

endheader
time	pelvis_tilt	pelvis_list	pelvis_rotation	pelvis_tx	pelvis_ty	pelvis_tz	hip_flexion_r	hip_adduction_r	hip_rotation_r	knee_angle_r	knee_adduction_r	knee_angle_r_beta	ankle_angle_r	subtalar_angle_r	mtp_angle_r	hip_flexion_l	hip_adduction_l	hip_rotation_l	knee_angle_l	knee_adduction_l	knee_angle_l_beta	ankle_angle_l	subtalar_angle_l	mtp_angle_l	lumbar_extension	lumbar_bending	lumbar_rotation	arm_flex_r	arm_add_r	arm_rot_r	elbow_flex_r	pro_sup_r	wrist_flex_r	wrist_dev_r	arm_flex_l	arm_add_l	arm_rot_l	elbow_flex_l	pro_sup_l	wrist_flex_l	wrist_dev_l
      1.32000000	     19.20500464	      2.18558538	      5.77537314	     -0.29626647	      0.99836932	      0.20043186	     -7.72260506	      2.66888792	    -21.52978784	     27.05188113	     -8.69146108	      0.47214439	     16.60958703	     15.78475186	     -7.56076265	     -0.18450224	      0.99210661	      3.11692012	     61.04857984	     -1.81007711	      1.06549872	      6.95077698	     -5.76911679	     -7.56076265	    -43.39117190	      0.41892696	      4.86770975	      5.67122591	    -18.57410594	     -3.15639468	     63.08406899	     90.00000001	      0.00000000	      0.00000000	      0.01934627	    -15.67237174	      0.14183337	     58.85457611	     90.00000001	      0.00000000	      0.00000000
      1.33000000	     19.36338912	      2.30608568	      5.42289035	     -0.28339569	      0.99975231	      0.20078046	     -9.11742207	      2.44400017	    -23.41520545	     25.95280510	     -9.16395169	      0.45296190	     17.59814573	     20.45249927	     -7.55695010	      0.90663641	      1.35491532	      3.37896560	     59.07186596	     -1.28021380	      1.03099856	      6.78495671	     -7.76807678	     -7.55695010	    -43.66123116	      0.09863259	      4.92135146	      5.90851902	    -19.40516081	     -1.43088106	     64.46743485	     90.00000001	      0.00000000	      0.00000000	     -0.05779740	    -15.20155705	     -1.11029744	     56.64346227	     90.00000001	      0.00000000	      0.00000000
      1.34000000	     19.25783321	      2.29556898	      5.11512496	     -0.27063326	      1.00050160	      0.20128134	    -10.33142584	      2.57378796	    -23.50685864	     24.83309590	     -9.10329811	      0.43341929	     17.95214656	     20.89722236	     -7.55600996	      2.31944643	      1.50629242	      3.26768990	     57.01095081	     -1.06434668	      0.99502880	      6.99063184	     -8.03584216	     -7.55600996	    -43.65785851	     -0.18785687	      5.02948702	      6.42430093	    -19.43570655	     -1.27394220	     64.93822923	     90.00000001	      0.00000000	      0.00000000	     -0.71421559	    -15.30822104	     -1.23792825	     56.02338515	     90.00000001	      0.00000000	      0.00000000
      1.35000000	     19.42513313	      2.33251816	      4.78101966	     -0.25775374	      1.00114076	      0.20153050	    -11.74824329	      2.47133501	    -24.63341726	     23.84981831	     -9.23729697	      0.41625786	     18.65384595	     23.75251214	     -7.55246393	      3.25184583	      1.70712126	      3.51327577	     54.64159289	     -0.56763057	      0.95367570	      6.41581525	     -9.65728153	     -7.55246393	    -43.92323316	     -0.43827440	      5.16446417	      6.76029342	    -20.05384755	     -0.17373112	     66.02187492	     90.00000001	      0.00000000	      0.00000000	     -1.02204976	    -15.03795241	     -2.00527587	     54.58601304	     90.00000001	      0.00000000	      0.00000000
      1.36000000	     19.55309035	      2.30054483	      4.48306125	     -0.24487440	      1.00137913	      0.20180661	    -13.21231389	      2.56083885	    -24.85319452	     22.79071563	     -9.10512049	      0.39777303	     19.12571716	     24.71841719	     -7.55049998	      4.19154441	      1.75985981	      3.31080753	     52.12927689	     -0.41972593	      0.90982752	      6.22257133	     -9.98255020	     -7.55049998	    -44.13449181	     -0.64912708	      5.29371951	      7.19198016	    -20.32553313	      0.26403593	     66.68660912	     90.00000001	      0.00000000	      0.00000000	     -1.49834313	    -15.01600457	     -2.32045060	     53.72503080	     90.00000001	      0.00000000	      0.00000000
      1.37000000	     19.71215642	      2.18230271	      4.16150122	     -0.23193482	      1.00124189	      0.20195114	    -14.66012938	      2.70054941	    -25.01675512	     21.86683146	     -8.95402051	      0.38164821	     19.62987714	     25.60369005	     -7.54893313	      5.00872270	      1.73676499	      2.96911188	     49.45882725	     -0.45433006	      0.86321938	      5.91889224	    -10.02759824	     -7.54893313	    -44.36036210	     -0.74275500	      5.50683706	      7.66380550	    -20.66527708	      0.76713298	     67.43424651	     90.00000001	      0.00000000	      0.00000000	     -2.04637835	    -14.88147319	     -2.62811057	     52.82022843	     90.00000001	      0.00000000	      0.00000000
      1.38000000	     19.80791875	      2.11141045	      3.88237106	     -0.21899638	      1.00068150	      0.20209070	    -16.07446625	      2.80873674	    -25.06796885	     20.88059390	     -8.77317724	      0.36443511	     20.16872560	     26.39955643	     -7.54772104	      5.82999039	      1.68675077	      2.35316962	     46.65863063	     -0.56253504	      0.81434673	      5.54767182	     -9.73251643	     -7.54772104	    -44.53391308	     -0.89134935	      5.59007918	      8.11759767	    -20.90776424	      1.27647457	     68.17751097	     90.00000001	      0.00000000	      0.00000000	     -2.53392702	    -14.90173391	     -2.96032437	     51.99819611	     90.00000001	      0.00000000	      0.00000000
      1.39000000	     19.98362488	      1.99035709	      3.59483398	     -0.20594368	      0.99981606	      0.20214280	    -17.55603052	      2.95177523	    -25.07755142	     19.98436333	     -8.58715051	      0.34879294	     20.68891292	     27.15909279	     -7.54660769	      6.47710977	      1.56145031	      1.43856977	     43.74238760	     -0.86589588	      0.76344869	      5.11122967	     -9.06073559	     -7.54660769	    -44.75026519	     -0.98504274	      5.73841888	      8.55486045	    -21.23516313	      1.81194015	     68.88991827	     90.00000001	      0.00000000	      0.00000000	     -3.01207959	    -14.82756114	     -3.29547023	     51.21925317	     90.00000001	      0.00000000	      0.00000000
      1.40000000	     20.18981791	      1.77275455	      3.26601565	     -0.19275733	      0.99853076	      0.20214002	    -18.94200133	      3.09170877	    -25.67824949	     19.27117220	     -8.60536952	      0.33634541	     21.26278172	     28.97865362	     -7.54335675	      7.08180325	      1.27873273	     -0.42986214	     40.84601926	     -1.70714150	      0.71289752	      5.20927660	     -6.57265454	     -7.54335675	    -44.97589670	     -0.98587758	      5.95900143	      8.96235835	    -21.95662896	      3.10681637	     69.84871227	     90.00000001	      0.00000000	      0.00000000	     -3.46304143	    -14.50448274	     -4.25809395	     50.32806312	     90.00000001	      0.00000000	      0.00000000
      1.41000000	     20.39100470	      1.56373827	      2.97128339	     -0.17960626	      0.99705447	      0.20206602	    -20.42871861	      3.28466625	    -25.42516635	     18.49291547	     -8.33892251	      0.32276226	     21.77897471	     29.27275201	     -7.54227234	      7.53674972	      1.02121315	     -1.81249615	     37.78689477	     -2.16570285	      0.65950573	      4.59247630	     -5.29917891	     -7.54227234	    -45.19821863	     -0.99047086	      6.15155035	      9.47955063	    -22.13363110	      3.34902810	     70.29696308	     90.00000001	      0.00000000	      0.00000000	     -4.02860187	    -14.43938479	     -4.43082272	     49.79461234	     90.00000001	      0.00000000	      0.00000000
      1.42000000	     20.65693541	      1.22829583	      2.58956171	     -0.16617458	      0.99516449	      0.20205487	    -21.89151445	      3.52659928	    -25.54853136	     17.84852675	     -8.26365062	      0.31151556	     22.21005717	     30.32217388	     -7.53937018	      8.01082699	      0.49159189	     -4.89922805	     34.96938929	     -3.35466869	      0.61033098	      5.08308579	     -0.52775686	     -7.53937018	    -45.42558534	     -0.91078979	      6.45857738	      9.92971868	    -22.76219083	      4.42417907	     71.10565533	     90.00000001	      0.00000000	      0.00000000	     -4.55528987	    -14.17064752	     -5.16200951	     49.19482605	     90.00000001	      0.00000000	      0.00000000
      1.43000000	     20.90684361	      0.88421017	      2.22766825	     -0.15269237	      0.99306299	      0.20196261	    -23.31920465	      3.74938547	    -25.47225966	     17.31312671	     -8.09341729	      0.30217106	     22.64181631	     30.90565106	     -7.53687171	      8.40992446	     -0.03402732	     -7.73757196	     32.20219529	     -4.22032250	      0.56203433	      5.04951200	      3.33701056	     -7.53687171	    -45.63466518	     -0.83270015	      6.76827009	     10.39999225	    -23.10353511	      4.99809556	     71.58424360	     90.00000001	      0.00000000	      0.00000000	     -5.18100391	    -13.98735472	     -5.59183437	     48.77168751	     90.00000001	      0.00000000	      0.00000000
